<?xml version="1.0" standalone="no"?>
<!DOCTYPE svg PUBLIC "-//W3C//DTD SVG 20010904//EN"
 "http://www.w3.org/TR/2001/REC-SVG-20010904/DTD/svg10.dtd">
<svg version="1.0" xmlns="http://www.w3.org/2000/svg"
 width="700.000000pt" height="700.000000pt" viewBox="0 0 700.000000 700.000000"
 preserveAspectRatio="xMidYMid meet">
<metadata>
Created by potrace 1.14, written by Peter Selinger 2001-2017
</metadata>
<g transform="translate(0.000000,700.000000) scale(0.100000,-0.100000)"
fill="#000000" stroke="none">
<path d="M94 5922 c-12 -2 -32 -14 -45 -28 l-24 -25 0 -2359 0 -2360 28 -27
27 -28 1878 -1 c1032 0 1920 -4 1972 -9 52 -5 127 -8 165 -8 39 1 495 2 1015
3 935 2 1068 6 1185 36 163 42 319 137 439 265 64 69 144 186 147 214 0 6 5
15 9 20 15 18 57 146 71 215 49 245 -50 538 -251 739 -116 116 -252 192 -417
234 -48 12 -89 22 -91 23 -2 1 -5 19 -7 40 -18 157 -43 256 -98 372 l-31 67
-1 1282 0 1283 -28 27 -27 28 -2948 0 c-1621 0 -2957 -1 -2968 -3z"/>
</g>
</svg>
